<svg width="6" height="14" viewBox="0 0 6 14" fill="none" xmlns="http://www.w3.org/2000/svg">
<g clip-path="url(#clip0_4_815)">
<path d="M0.516479 10.6436C0.375203 10.6436 0.254435 10.5946 0.154175 10.4966C0.0539144 10.3986 0.00378418 10.279 0.00378418 10.1377C0.00378418 9.99642 0.056193 9.87337 0.161011 9.76855L2.92273 7.01367L0.161011 4.25879C0.056193 4.15397 0.00378418 4.03092 0.00378418 3.88965C0.00378418 3.74837 0.0539144 3.62874 0.154175 3.53076C0.254435 3.43278 0.375203 3.38379 0.516479 3.38379C0.648641 3.38379 0.767131 3.43164 0.871948 3.52734L3.98914 6.63086C4.09851 6.73112 4.1532 6.85872 4.1532 7.01367C4.1532 7.15951 4.09851 7.28711 3.98914 7.39648L0.871948 10.5C0.776245 10.5957 0.657756 10.6436 0.516479 10.6436Z" fill="#0066CC"/>
</g>
<defs>
<clipPath id="clip0_4_815">
<rect width="5.82" height="14" fill="white" transform="matrix(1 0 0 -1 0 14)"/>
</clipPath>
</defs>
</svg>
